<mxfile host="app.diagrams.net" agent="Mozilla/5.0 (Windows NT 10.0; Win64; x64) AppleWebKit/537.36 (KHTML, like Gecko) Chrome/136.0.0.0 Safari/537.36" version="27.0.8">
  <diagram name="Page-1" id="-2Xaj1xezBf_usMO_pPn">
    <mxGraphModel dx="4168" dy="2432" grid="1" gridSize="10" guides="1" tooltips="1" connect="1" arrows="1" fold="1" page="1" pageScale="1" pageWidth="850" pageHeight="1100" math="0" shadow="0">
      <root>
        <mxCell id="0" />
        <mxCell id="1" parent="0" />
        <mxCell id="l49nfDTgq1CVATP30IWU-1" value="&lt;&lt;abstract&gt;&gt;&#xa;Person" style="swimlane;fontStyle=1;align=center;verticalAlign=top;childLayout=stackLayout;horizontal=1;startSize=48;horizontalStack=0;resizeParent=1;resizeParentMax=0;resizeLast=0;collapsible=0;marginBottom=0;labelBackgroundColor=none;fillColor=#FAE5C7;strokeColor=#0F8B8D;fontColor=#143642;" vertex="1" parent="1">
          <mxGeometry x="42" y="310" width="228" height="312" as="geometry" />
        </mxCell>
        <mxCell id="l49nfDTgq1CVATP30IWU-2" value="-firstName: string" style="text;strokeColor=none;fillColor=none;align=left;verticalAlign=top;spacingLeft=4;spacingRight=4;overflow=hidden;rotatable=0;points=[[0,0.5],[1,0.5]];portConstraint=eastwest;labelBackgroundColor=none;fontColor=#143642;" vertex="1" parent="l49nfDTgq1CVATP30IWU-1">
          <mxGeometry y="48" width="228" height="32" as="geometry" />
        </mxCell>
        <mxCell id="l49nfDTgq1CVATP30IWU-3" value="-lastName: string" style="text;strokeColor=none;fillColor=none;align=left;verticalAlign=top;spacingLeft=4;spacingRight=4;overflow=hidden;rotatable=0;points=[[0,0.5],[1,0.5]];portConstraint=eastwest;labelBackgroundColor=none;fontColor=#143642;" vertex="1" parent="l49nfDTgq1CVATP30IWU-1">
          <mxGeometry y="80" width="228" height="32" as="geometry" />
        </mxCell>
        <mxCell id="l49nfDTgq1CVATP30IWU-4" value="-email: string" style="text;strokeColor=none;fillColor=none;align=left;verticalAlign=top;spacingLeft=4;spacingRight=4;overflow=hidden;rotatable=0;points=[[0,0.5],[1,0.5]];portConstraint=eastwest;labelBackgroundColor=none;fontColor=#143642;" vertex="1" parent="l49nfDTgq1CVATP30IWU-1">
          <mxGeometry y="112" width="228" height="32" as="geometry" />
        </mxCell>
        <mxCell id="l49nfDTgq1CVATP30IWU-5" value="-phoneNumber: string" style="text;strokeColor=none;fillColor=none;align=left;verticalAlign=top;spacingLeft=4;spacingRight=4;overflow=hidden;rotatable=0;points=[[0,0.5],[1,0.5]];portConstraint=eastwest;labelBackgroundColor=none;fontColor=#143642;" vertex="1" parent="l49nfDTgq1CVATP30IWU-1">
          <mxGeometry y="144" width="228" height="32" as="geometry" />
        </mxCell>
        <mxCell id="l49nfDTgq1CVATP30IWU-6" value="-address: string" style="text;strokeColor=none;fillColor=none;align=left;verticalAlign=top;spacingLeft=4;spacingRight=4;overflow=hidden;rotatable=0;points=[[0,0.5],[1,0.5]];portConstraint=eastwest;labelBackgroundColor=none;fontColor=#143642;" vertex="1" parent="l49nfDTgq1CVATP30IWU-1">
          <mxGeometry y="176" width="228" height="32" as="geometry" />
        </mxCell>
        <mxCell id="l49nfDTgq1CVATP30IWU-7" value="-userType: UserType" style="text;strokeColor=none;fillColor=none;align=left;verticalAlign=top;spacingLeft=4;spacingRight=4;overflow=hidden;rotatable=0;points=[[0,0.5],[1,0.5]];portConstraint=eastwest;labelBackgroundColor=none;fontColor=#143642;" vertex="1" parent="l49nfDTgq1CVATP30IWU-1">
          <mxGeometry y="208" width="228" height="32" as="geometry" />
        </mxCell>
        <mxCell id="l49nfDTgq1CVATP30IWU-8" style="line;strokeWidth=1;fillColor=none;align=left;verticalAlign=middle;spacingTop=-1;spacingLeft=3;spacingRight=3;rotatable=0;labelPosition=right;points=[];portConstraint=eastwest;strokeColor=#0F8B8D;labelBackgroundColor=none;fontColor=#143642;" vertex="1" parent="l49nfDTgq1CVATP30IWU-1">
          <mxGeometry y="240" width="228" height="8" as="geometry" />
        </mxCell>
        <mxCell id="l49nfDTgq1CVATP30IWU-9" value="+displayInfo() : virtual" style="text;strokeColor=none;fillColor=none;align=left;verticalAlign=top;spacingLeft=4;spacingRight=4;overflow=hidden;rotatable=0;points=[[0,0.5],[1,0.5]];portConstraint=eastwest;labelBackgroundColor=none;fontColor=#143642;" vertex="1" parent="l49nfDTgq1CVATP30IWU-1">
          <mxGeometry y="248" width="228" height="32" as="geometry" />
        </mxCell>
        <mxCell id="l49nfDTgq1CVATP30IWU-10" value="+getFullName() : string" style="text;strokeColor=none;fillColor=none;align=left;verticalAlign=top;spacingLeft=4;spacingRight=4;overflow=hidden;rotatable=0;points=[[0,0.5],[1,0.5]];portConstraint=eastwest;labelBackgroundColor=none;fontColor=#143642;" vertex="1" parent="l49nfDTgq1CVATP30IWU-1">
          <mxGeometry y="280" width="228" height="32" as="geometry" />
        </mxCell>
        <mxCell id="l49nfDTgq1CVATP30IWU-11" value="Parent" style="swimlane;fontStyle=1;align=center;verticalAlign=top;childLayout=stackLayout;horizontal=1;startSize=34.666666666666664;horizontalStack=0;resizeParent=1;resizeParentMax=0;resizeLast=0;collapsible=0;marginBottom=0;labelBackgroundColor=none;fillColor=#FAE5C7;strokeColor=#0F8B8D;fontColor=#143642;" vertex="1" parent="1">
          <mxGeometry x="20" y="672" width="272" height="217.66666666666666" as="geometry" />
        </mxCell>
        <mxCell id="l49nfDTgq1CVATP30IWU-12" value="-children: Child" style="text;strokeColor=none;fillColor=none;align=left;verticalAlign=top;spacingLeft=4;spacingRight=4;overflow=hidden;rotatable=0;points=[[0,0.5],[1,0.5]];portConstraint=eastwest;labelBackgroundColor=none;fontColor=#143642;" vertex="1" parent="l49nfDTgq1CVATP30IWU-11">
          <mxGeometry y="34.666666666666664" width="272" height="35" as="geometry" />
        </mxCell>
        <mxCell id="l49nfDTgq1CVATP30IWU-13" value="-rideOffers: RideOffer" style="text;strokeColor=none;fillColor=none;align=left;verticalAlign=top;spacingLeft=4;spacingRight=4;overflow=hidden;rotatable=0;points=[[0,0.5],[1,0.5]];portConstraint=eastwest;labelBackgroundColor=none;fontColor=#143642;" vertex="1" parent="l49nfDTgq1CVATP30IWU-11">
          <mxGeometry y="69.66666666666666" width="272" height="35" as="geometry" />
        </mxCell>
        <mxCell id="l49nfDTgq1CVATP30IWU-14" style="line;strokeWidth=1;fillColor=none;align=left;verticalAlign=middle;spacingTop=-1;spacingLeft=3;spacingRight=3;rotatable=0;labelPosition=right;points=[];portConstraint=eastwest;strokeColor=#0F8B8D;labelBackgroundColor=none;fontColor=#143642;" vertex="1" parent="l49nfDTgq1CVATP30IWU-11">
          <mxGeometry y="104.66666666666666" width="272" height="8" as="geometry" />
        </mxCell>
        <mxCell id="l49nfDTgq1CVATP30IWU-15" value="+addChild(Child*)" style="text;strokeColor=none;fillColor=none;align=left;verticalAlign=top;spacingLeft=4;spacingRight=4;overflow=hidden;rotatable=0;points=[[0,0.5],[1,0.5]];portConstraint=eastwest;labelBackgroundColor=none;fontColor=#143642;" vertex="1" parent="l49nfDTgq1CVATP30IWU-11">
          <mxGeometry y="112.66666666666666" width="272" height="35" as="geometry" />
        </mxCell>
        <mxCell id="l49nfDTgq1CVATP30IWU-16" value="+createRideOffer() : RideOffer" style="text;strokeColor=none;fillColor=none;align=left;verticalAlign=top;spacingLeft=4;spacingRight=4;overflow=hidden;rotatable=0;points=[[0,0.5],[1,0.5]];portConstraint=eastwest;labelBackgroundColor=none;fontColor=#143642;" vertex="1" parent="l49nfDTgq1CVATP30IWU-11">
          <mxGeometry y="147.66666666666666" width="272" height="35" as="geometry" />
        </mxCell>
        <mxCell id="l49nfDTgq1CVATP30IWU-17" value="+rateDriver()" style="text;strokeColor=none;fillColor=none;align=left;verticalAlign=top;spacingLeft=4;spacingRight=4;overflow=hidden;rotatable=0;points=[[0,0.5],[1,0.5]];portConstraint=eastwest;labelBackgroundColor=none;fontColor=#143642;" vertex="1" parent="l49nfDTgq1CVATP30IWU-11">
          <mxGeometry y="182.66666666666666" width="272" height="35" as="geometry" />
        </mxCell>
        <mxCell id="l49nfDTgq1CVATP30IWU-18" value="Driver" style="swimlane;fontStyle=1;align=center;verticalAlign=top;childLayout=stackLayout;horizontal=1;startSize=32;horizontalStack=0;resizeParent=1;resizeParentMax=0;resizeLast=0;collapsible=0;marginBottom=0;labelBackgroundColor=none;fillColor=#FAE5C7;strokeColor=#0F8B8D;fontColor=#143642;" vertex="1" parent="1">
          <mxGeometry x="701" y="938" width="197" height="264" as="geometry" />
        </mxCell>
        <mxCell id="l49nfDTgq1CVATP30IWU-19" value="-hireDate: string" style="text;strokeColor=none;fillColor=none;align=left;verticalAlign=top;spacingLeft=4;spacingRight=4;overflow=hidden;rotatable=0;points=[[0,0.5],[1,0.5]];portConstraint=eastwest;labelBackgroundColor=none;fontColor=#143642;" vertex="1" parent="l49nfDTgq1CVATP30IWU-18">
          <mxGeometry y="32" width="197" height="32" as="geometry" />
        </mxCell>
        <mxCell id="l49nfDTgq1CVATP30IWU-20" value="-joinDate: string" style="text;strokeColor=none;fillColor=none;align=left;verticalAlign=top;spacingLeft=4;spacingRight=4;overflow=hidden;rotatable=0;points=[[0,0.5],[1,0.5]];portConstraint=eastwest;labelBackgroundColor=none;fontColor=#143642;" vertex="1" parent="l49nfDTgq1CVATP30IWU-18">
          <mxGeometry y="64" width="197" height="32" as="geometry" />
        </mxCell>
        <mxCell id="l49nfDTgq1CVATP30IWU-21" value="-authenticated: bool" style="text;strokeColor=none;fillColor=none;align=left;verticalAlign=top;spacingLeft=4;spacingRight=4;overflow=hidden;rotatable=0;points=[[0,0.5],[1,0.5]];portConstraint=eastwest;labelBackgroundColor=none;fontColor=#143642;" vertex="1" parent="l49nfDTgq1CVATP30IWU-18">
          <mxGeometry y="96" width="197" height="32" as="geometry" />
        </mxCell>
        <mxCell id="l49nfDTgq1CVATP30IWU-22" value="-bookings: Booking" style="text;strokeColor=none;fillColor=none;align=left;verticalAlign=top;spacingLeft=4;spacingRight=4;overflow=hidden;rotatable=0;points=[[0,0.5],[1,0.5]];portConstraint=eastwest;labelBackgroundColor=none;fontColor=#143642;" vertex="1" parent="l49nfDTgq1CVATP30IWU-18">
          <mxGeometry y="128" width="197" height="32" as="geometry" />
        </mxCell>
        <mxCell id="l49nfDTgq1CVATP30IWU-23" value="-availability: vector&amp;gt;" style="text;strokeColor=none;fillColor=none;align=left;verticalAlign=top;spacingLeft=4;spacingRight=4;overflow=hidden;rotatable=0;points=[[0,0.5],[1,0.5]];portConstraint=eastwest;labelBackgroundColor=none;fontColor=#143642;" vertex="1" parent="l49nfDTgq1CVATP30IWU-18">
          <mxGeometry y="160" width="197" height="32" as="geometry" />
        </mxCell>
        <mxCell id="l49nfDTgq1CVATP30IWU-24" style="line;strokeWidth=1;fillColor=none;align=left;verticalAlign=middle;spacingTop=-1;spacingLeft=3;spacingRight=3;rotatable=0;labelPosition=right;points=[];portConstraint=eastwest;strokeColor=#0F8B8D;labelBackgroundColor=none;fontColor=#143642;" vertex="1" parent="l49nfDTgq1CVATP30IWU-18">
          <mxGeometry y="192" width="197" height="8" as="geometry" />
        </mxCell>
        <mxCell id="l49nfDTgq1CVATP30IWU-25" value="+bookRide() : bool" style="text;strokeColor=none;fillColor=none;align=left;verticalAlign=top;spacingLeft=4;spacingRight=4;overflow=hidden;rotatable=0;points=[[0,0.5],[1,0.5]];portConstraint=eastwest;labelBackgroundColor=none;fontColor=#143642;" vertex="1" parent="l49nfDTgq1CVATP30IWU-18">
          <mxGeometry y="200" width="197" height="32" as="geometry" />
        </mxCell>
        <mxCell id="l49nfDTgq1CVATP30IWU-26" value="+addAvailability()" style="text;strokeColor=none;fillColor=none;align=left;verticalAlign=top;spacingLeft=4;spacingRight=4;overflow=hidden;rotatable=0;points=[[0,0.5],[1,0.5]];portConstraint=eastwest;labelBackgroundColor=none;fontColor=#143642;" vertex="1" parent="l49nfDTgq1CVATP30IWU-18">
          <mxGeometry y="232" width="197" height="32" as="geometry" />
        </mxCell>
        <mxCell id="l49nfDTgq1CVATP30IWU-27" value="Child" style="swimlane;fontStyle=1;align=center;verticalAlign=top;childLayout=stackLayout;horizontal=1;startSize=33.142857142857146;horizontalStack=0;resizeParent=1;resizeParentMax=0;resizeLast=0;collapsible=0;marginBottom=0;labelBackgroundColor=none;fillColor=#FAE5C7;strokeColor=#0F8B8D;fontColor=#143642;" vertex="1" parent="1">
          <mxGeometry x="33" y="950" width="246" height="239.14285714285714" as="geometry" />
        </mxCell>
        <mxCell id="l49nfDTgq1CVATP30IWU-28" value="-firstName: string" style="text;strokeColor=none;fillColor=none;align=left;verticalAlign=top;spacingLeft=4;spacingRight=4;overflow=hidden;rotatable=0;points=[[0,0.5],[1,0.5]];portConstraint=eastwest;labelBackgroundColor=none;fontColor=#143642;" vertex="1" parent="l49nfDTgq1CVATP30IWU-27">
          <mxGeometry y="33.142857142857146" width="246" height="33" as="geometry" />
        </mxCell>
        <mxCell id="l49nfDTgq1CVATP30IWU-29" value="-lastName: string" style="text;strokeColor=none;fillColor=none;align=left;verticalAlign=top;spacingLeft=4;spacingRight=4;overflow=hidden;rotatable=0;points=[[0,0.5],[1,0.5]];portConstraint=eastwest;labelBackgroundColor=none;fontColor=#143642;" vertex="1" parent="l49nfDTgq1CVATP30IWU-27">
          <mxGeometry y="66.14285714285714" width="246" height="33" as="geometry" />
        </mxCell>
        <mxCell id="l49nfDTgq1CVATP30IWU-30" value="-age: int" style="text;strokeColor=none;fillColor=none;align=left;verticalAlign=top;spacingLeft=4;spacingRight=4;overflow=hidden;rotatable=0;points=[[0,0.5],[1,0.5]];portConstraint=eastwest;labelBackgroundColor=none;fontColor=#143642;" vertex="1" parent="l49nfDTgq1CVATP30IWU-27">
          <mxGeometry y="99.14285714285714" width="246" height="33" as="geometry" />
        </mxCell>
        <mxCell id="l49nfDTgq1CVATP30IWU-31" value="-parent: Parent" style="text;strokeColor=none;fillColor=none;align=left;verticalAlign=top;spacingLeft=4;spacingRight=4;overflow=hidden;rotatable=0;points=[[0,0.5],[1,0.5]];portConstraint=eastwest;labelBackgroundColor=none;fontColor=#143642;" vertex="1" parent="l49nfDTgq1CVATP30IWU-27">
          <mxGeometry y="132.14285714285714" width="246" height="33" as="geometry" />
        </mxCell>
        <mxCell id="l49nfDTgq1CVATP30IWU-32" value="-emergencyContacts: vector" style="text;strokeColor=none;fillColor=none;align=left;verticalAlign=top;spacingLeft=4;spacingRight=4;overflow=hidden;rotatable=0;points=[[0,0.5],[1,0.5]];portConstraint=eastwest;labelBackgroundColor=none;fontColor=#143642;" vertex="1" parent="l49nfDTgq1CVATP30IWU-27">
          <mxGeometry y="165.14285714285714" width="246" height="33" as="geometry" />
        </mxCell>
        <mxCell id="l49nfDTgq1CVATP30IWU-33" style="line;strokeWidth=1;fillColor=none;align=left;verticalAlign=middle;spacingTop=-1;spacingLeft=3;spacingRight=3;rotatable=0;labelPosition=right;points=[];portConstraint=eastwest;strokeColor=#0F8B8D;labelBackgroundColor=none;fontColor=#143642;" vertex="1" parent="l49nfDTgq1CVATP30IWU-27">
          <mxGeometry y="198.14285714285714" width="246" height="8" as="geometry" />
        </mxCell>
        <mxCell id="l49nfDTgq1CVATP30IWU-34" value="+addEmergencyContact()" style="text;strokeColor=none;fillColor=none;align=left;verticalAlign=top;spacingLeft=4;spacingRight=4;overflow=hidden;rotatable=0;points=[[0,0.5],[1,0.5]];portConstraint=eastwest;labelBackgroundColor=none;fontColor=#143642;" vertex="1" parent="l49nfDTgq1CVATP30IWU-27">
          <mxGeometry y="206.14285714285714" width="246" height="33" as="geometry" />
        </mxCell>
        <mxCell id="l49nfDTgq1CVATP30IWU-35" value="RideOffer" style="swimlane;fontStyle=1;align=center;verticalAlign=top;childLayout=stackLayout;horizontal=1;startSize=32;horizontalStack=0;resizeParent=1;resizeParentMax=0;resizeLast=0;collapsible=0;marginBottom=0;labelBackgroundColor=none;fillColor=#FAE5C7;strokeColor=#0F8B8D;fontColor=#143642;" vertex="1" parent="1">
          <mxGeometry x="347" y="938" width="231" height="264" as="geometry" />
        </mxCell>
        <mxCell id="l49nfDTgq1CVATP30IWU-36" value="-parent: Parent" style="text;strokeColor=none;fillColor=none;align=left;verticalAlign=top;spacingLeft=4;spacingRight=4;overflow=hidden;rotatable=0;points=[[0,0.5],[1,0.5]];portConstraint=eastwest;labelBackgroundColor=none;fontColor=#143642;" vertex="1" parent="l49nfDTgq1CVATP30IWU-35">
          <mxGeometry y="32" width="231" height="32" as="geometry" />
        </mxCell>
        <mxCell id="l49nfDTgq1CVATP30IWU-37" value="-child: Child" style="text;strokeColor=none;fillColor=none;align=left;verticalAlign=top;spacingLeft=4;spacingRight=4;overflow=hidden;rotatable=0;points=[[0,0.5],[1,0.5]];portConstraint=eastwest;labelBackgroundColor=none;fontColor=#143642;" vertex="1" parent="l49nfDTgq1CVATP30IWU-35">
          <mxGeometry y="64" width="231" height="32" as="geometry" />
        </mxCell>
        <mxCell id="l49nfDTgq1CVATP30IWU-38" value="-pickupLocation: string" style="text;strokeColor=none;fillColor=none;align=left;verticalAlign=top;spacingLeft=4;spacingRight=4;overflow=hidden;rotatable=0;points=[[0,0.5],[1,0.5]];portConstraint=eastwest;labelBackgroundColor=none;fontColor=#143642;" vertex="1" parent="l49nfDTgq1CVATP30IWU-35">
          <mxGeometry y="96" width="231" height="32" as="geometry" />
        </mxCell>
        <mxCell id="l49nfDTgq1CVATP30IWU-39" value="-dropoffLocation: string" style="text;strokeColor=none;fillColor=none;align=left;verticalAlign=top;spacingLeft=4;spacingRight=4;overflow=hidden;rotatable=0;points=[[0,0.5],[1,0.5]];portConstraint=eastwest;labelBackgroundColor=none;fontColor=#143642;" vertex="1" parent="l49nfDTgq1CVATP30IWU-35">
          <mxGeometry y="128" width="231" height="32" as="geometry" />
        </mxCell>
        <mxCell id="l49nfDTgq1CVATP30IWU-40" value="-rideTime: tm" style="text;strokeColor=none;fillColor=none;align=left;verticalAlign=top;spacingLeft=4;spacingRight=4;overflow=hidden;rotatable=0;points=[[0,0.5],[1,0.5]];portConstraint=eastwest;labelBackgroundColor=none;fontColor=#143642;" vertex="1" parent="l49nfDTgq1CVATP30IWU-35">
          <mxGeometry y="160" width="231" height="32" as="geometry" />
        </mxCell>
        <mxCell id="l49nfDTgq1CVATP30IWU-41" value="-booking: Booking" style="text;strokeColor=none;fillColor=none;align=left;verticalAlign=top;spacingLeft=4;spacingRight=4;overflow=hidden;rotatable=0;points=[[0,0.5],[1,0.5]];portConstraint=eastwest;labelBackgroundColor=none;fontColor=#143642;" vertex="1" parent="l49nfDTgq1CVATP30IWU-35">
          <mxGeometry y="192" width="231" height="32" as="geometry" />
        </mxCell>
        <mxCell id="l49nfDTgq1CVATP30IWU-42" style="line;strokeWidth=1;fillColor=none;align=left;verticalAlign=middle;spacingTop=-1;spacingLeft=3;spacingRight=3;rotatable=0;labelPosition=right;points=[];portConstraint=eastwest;strokeColor=#0F8B8D;labelBackgroundColor=none;fontColor=#143642;" vertex="1" parent="l49nfDTgq1CVATP30IWU-35">
          <mxGeometry y="224" width="231" height="8" as="geometry" />
        </mxCell>
        <mxCell id="l49nfDTgq1CVATP30IWU-43" value="+isBooked() : bool" style="text;strokeColor=none;fillColor=none;align=left;verticalAlign=top;spacingLeft=4;spacingRight=4;overflow=hidden;rotatable=0;points=[[0,0.5],[1,0.5]];portConstraint=eastwest;labelBackgroundColor=none;fontColor=#143642;" vertex="1" parent="l49nfDTgq1CVATP30IWU-35">
          <mxGeometry y="232" width="231" height="32" as="geometry" />
        </mxCell>
        <mxCell id="l49nfDTgq1CVATP30IWU-44" value="Booking" style="swimlane;fontStyle=1;align=center;verticalAlign=top;childLayout=stackLayout;horizontal=1;startSize=34.666666666666664;horizontalStack=0;resizeParent=1;resizeParentMax=0;resizeLast=0;collapsible=0;marginBottom=0;labelBackgroundColor=none;fillColor=#FAE5C7;strokeColor=#0F8B8D;fontColor=#143642;" vertex="1" parent="1">
          <mxGeometry x="374" y="1252" width="177" height="217.66666666666666" as="geometry" />
        </mxCell>
        <mxCell id="l49nfDTgq1CVATP30IWU-45" value="-offer: RideOffer" style="text;strokeColor=none;fillColor=none;align=left;verticalAlign=top;spacingLeft=4;spacingRight=4;overflow=hidden;rotatable=0;points=[[0,0.5],[1,0.5]];portConstraint=eastwest;labelBackgroundColor=none;fontColor=#143642;" vertex="1" parent="l49nfDTgq1CVATP30IWU-44">
          <mxGeometry y="34.666666666666664" width="177" height="35" as="geometry" />
        </mxCell>
        <mxCell id="l49nfDTgq1CVATP30IWU-46" value="-driver: Driver" style="text;strokeColor=none;fillColor=none;align=left;verticalAlign=top;spacingLeft=4;spacingRight=4;overflow=hidden;rotatable=0;points=[[0,0.5],[1,0.5]];portConstraint=eastwest;labelBackgroundColor=none;fontColor=#143642;" vertex="1" parent="l49nfDTgq1CVATP30IWU-44">
          <mxGeometry y="69.66666666666666" width="177" height="35" as="geometry" />
        </mxCell>
        <mxCell id="l49nfDTgq1CVATP30IWU-47" value="-rating: int" style="text;strokeColor=none;fillColor=none;align=left;verticalAlign=top;spacingLeft=4;spacingRight=4;overflow=hidden;rotatable=0;points=[[0,0.5],[1,0.5]];portConstraint=eastwest;labelBackgroundColor=none;fontColor=#143642;" vertex="1" parent="l49nfDTgq1CVATP30IWU-44">
          <mxGeometry y="104.66666666666666" width="177" height="35" as="geometry" />
        </mxCell>
        <mxCell id="l49nfDTgq1CVATP30IWU-48" value="-comment: string" style="text;strokeColor=none;fillColor=none;align=left;verticalAlign=top;spacingLeft=4;spacingRight=4;overflow=hidden;rotatable=0;points=[[0,0.5],[1,0.5]];portConstraint=eastwest;labelBackgroundColor=none;fontColor=#143642;" vertex="1" parent="l49nfDTgq1CVATP30IWU-44">
          <mxGeometry y="139.66666666666666" width="177" height="35" as="geometry" />
        </mxCell>
        <mxCell id="l49nfDTgq1CVATP30IWU-49" style="line;strokeWidth=1;fillColor=none;align=left;verticalAlign=middle;spacingTop=-1;spacingLeft=3;spacingRight=3;rotatable=0;labelPosition=right;points=[];portConstraint=eastwest;strokeColor=#0F8B8D;labelBackgroundColor=none;fontColor=#143642;" vertex="1" parent="l49nfDTgq1CVATP30IWU-44">
          <mxGeometry y="174.66666666666666" width="177" height="8" as="geometry" />
        </mxCell>
        <mxCell id="l49nfDTgq1CVATP30IWU-50" value="+setRating()" style="text;strokeColor=none;fillColor=none;align=left;verticalAlign=top;spacingLeft=4;spacingRight=4;overflow=hidden;rotatable=0;points=[[0,0.5],[1,0.5]];portConstraint=eastwest;labelBackgroundColor=none;fontColor=#143642;" vertex="1" parent="l49nfDTgq1CVATP30IWU-44">
          <mxGeometry y="182.66666666666666" width="177" height="35" as="geometry" />
        </mxCell>
        <mxCell id="l49nfDTgq1CVATP30IWU-51" value="CarpoolSystem" style="swimlane;fontStyle=1;align=center;verticalAlign=top;childLayout=stackLayout;horizontal=1;startSize=33.142857142857146;horizontalStack=0;resizeParent=1;resizeParentMax=0;resizeLast=0;collapsible=0;marginBottom=0;labelBackgroundColor=none;fillColor=#FAE5C7;strokeColor=#0F8B8D;fontColor=#143642;" vertex="1" parent="1">
          <mxGeometry x="249" y="20" width="255" height="239.14285714285714" as="geometry" />
        </mxCell>
        <mxCell id="l49nfDTgq1CVATP30IWU-52" value="-users: Person" style="text;strokeColor=none;fillColor=none;align=left;verticalAlign=top;spacingLeft=4;spacingRight=4;overflow=hidden;rotatable=0;points=[[0,0.5],[1,0.5]];portConstraint=eastwest;labelBackgroundColor=none;fontColor=#143642;" vertex="1" parent="l49nfDTgq1CVATP30IWU-51">
          <mxGeometry y="33.142857142857146" width="255" height="33" as="geometry" />
        </mxCell>
        <mxCell id="l49nfDTgq1CVATP30IWU-53" value="-activeOffers: RideOffer" style="text;strokeColor=none;fillColor=none;align=left;verticalAlign=top;spacingLeft=4;spacingRight=4;overflow=hidden;rotatable=0;points=[[0,0.5],[1,0.5]];portConstraint=eastwest;labelBackgroundColor=none;fontColor=#143642;" vertex="1" parent="l49nfDTgq1CVATP30IWU-51">
          <mxGeometry y="66.14285714285714" width="255" height="33" as="geometry" />
        </mxCell>
        <mxCell id="l49nfDTgq1CVATP30IWU-54" value="-running: bool" style="text;strokeColor=none;fillColor=none;align=left;verticalAlign=top;spacingLeft=4;spacingRight=4;overflow=hidden;rotatable=0;points=[[0,0.5],[1,0.5]];portConstraint=eastwest;labelBackgroundColor=none;fontColor=#143642;" vertex="1" parent="l49nfDTgq1CVATP30IWU-51">
          <mxGeometry y="99.14285714285714" width="255" height="33" as="geometry" />
        </mxCell>
        <mxCell id="l49nfDTgq1CVATP30IWU-55" style="line;strokeWidth=1;fillColor=none;align=left;verticalAlign=middle;spacingTop=-1;spacingLeft=3;spacingRight=3;rotatable=0;labelPosition=right;points=[];portConstraint=eastwest;strokeColor=#0F8B8D;labelBackgroundColor=none;fontColor=#143642;" vertex="1" parent="l49nfDTgq1CVATP30IWU-51">
          <mxGeometry y="132.14285714285714" width="255" height="8" as="geometry" />
        </mxCell>
        <mxCell id="l49nfDTgq1CVATP30IWU-56" value="+addUser()" style="text;strokeColor=none;fillColor=none;align=left;verticalAlign=top;spacingLeft=4;spacingRight=4;overflow=hidden;rotatable=0;points=[[0,0.5],[1,0.5]];portConstraint=eastwest;labelBackgroundColor=none;fontColor=#143642;" vertex="1" parent="l49nfDTgq1CVATP30IWU-51">
          <mxGeometry y="140.14285714285714" width="255" height="33" as="geometry" />
        </mxCell>
        <mxCell id="l49nfDTgq1CVATP30IWU-57" value="+addRideOffer()" style="text;strokeColor=none;fillColor=none;align=left;verticalAlign=top;spacingLeft=4;spacingRight=4;overflow=hidden;rotatable=0;points=[[0,0.5],[1,0.5]];portConstraint=eastwest;labelBackgroundColor=none;fontColor=#143642;" vertex="1" parent="l49nfDTgq1CVATP30IWU-51">
          <mxGeometry y="173.14285714285714" width="255" height="33" as="geometry" />
        </mxCell>
        <mxCell id="l49nfDTgq1CVATP30IWU-58" value="+processRideOffers()" style="text;strokeColor=none;fillColor=none;align=left;verticalAlign=top;spacingLeft=4;spacingRight=4;overflow=hidden;rotatable=0;points=[[0,0.5],[1,0.5]];portConstraint=eastwest;labelBackgroundColor=none;fontColor=#143642;" vertex="1" parent="l49nfDTgq1CVATP30IWU-51">
          <mxGeometry y="206.14285714285714" width="255" height="33" as="geometry" />
        </mxCell>
        <mxCell id="l49nfDTgq1CVATP30IWU-59" value="VehicleInfo" style="swimlane;fontStyle=1;align=center;verticalAlign=top;childLayout=stackLayout;horizontal=1;startSize=38;horizontalStack=0;resizeParent=1;resizeParentMax=0;resizeLast=0;collapsible=0;marginBottom=0;labelBackgroundColor=none;fillColor=#FAE5C7;strokeColor=#0F8B8D;fontColor=#143642;" vertex="1" parent="1">
          <mxGeometry x="755" y="1318" width="107" height="57" as="geometry" />
        </mxCell>
        <mxCell id="l49nfDTgq1CVATP30IWU-60" style="line;strokeWidth=1;fillColor=none;align=left;verticalAlign=middle;spacingTop=-1;spacingLeft=3;spacingRight=3;rotatable=0;labelPosition=right;points=[];portConstraint=eastwest;strokeColor=#0F8B8D;labelBackgroundColor=none;fontColor=#143642;" vertex="1" parent="l49nfDTgq1CVATP30IWU-59">
          <mxGeometry y="38" width="107" height="19" as="geometry" />
        </mxCell>
        <mxCell id="l49nfDTgq1CVATP30IWU-61" value="EmergencyContact" style="swimlane;fontStyle=1;align=center;verticalAlign=top;childLayout=stackLayout;horizontal=1;startSize=38;horizontalStack=0;resizeParent=1;resizeParentMax=0;resizeLast=0;collapsible=0;marginBottom=0;labelBackgroundColor=none;fillColor=#FAE5C7;strokeColor=#0F8B8D;fontColor=#143642;" vertex="1" parent="1">
          <mxGeometry x="74" y="1318" width="164" height="57" as="geometry" />
        </mxCell>
        <mxCell id="l49nfDTgq1CVATP30IWU-62" style="line;strokeWidth=1;fillColor=none;align=left;verticalAlign=middle;spacingTop=-1;spacingLeft=3;spacingRight=3;rotatable=0;labelPosition=right;points=[];portConstraint=eastwest;strokeColor=#0F8B8D;labelBackgroundColor=none;fontColor=#143642;" vertex="1" parent="l49nfDTgq1CVATP30IWU-61">
          <mxGeometry y="38" width="164" height="19" as="geometry" />
        </mxCell>
        <mxCell id="l49nfDTgq1CVATP30IWU-67" value="" style="curved=1;startArrow=block;startSize=16;startFill=0;endArrow=none;exitX=0.5;exitY=1;entryX=0.5;entryY=0;rounded=0;labelBackgroundColor=none;strokeColor=#A8201A;fontColor=default;" edge="1" parent="1" source="l49nfDTgq1CVATP30IWU-1" target="l49nfDTgq1CVATP30IWU-11">
          <mxGeometry relative="1" as="geometry">
            <Array as="points" />
          </mxGeometry>
        </mxCell>
        <mxCell id="l49nfDTgq1CVATP30IWU-68" value="" style="curved=1;startArrow=block;startSize=16;startFill=0;endArrow=none;exitX=1;exitY=0.59;entryX=0.77;entryY=0;rounded=0;labelBackgroundColor=none;strokeColor=#A8201A;fontColor=default;" edge="1" parent="1" source="l49nfDTgq1CVATP30IWU-1" target="l49nfDTgq1CVATP30IWU-18">
          <mxGeometry relative="1" as="geometry">
            <Array as="points">
              <mxPoint x="862" y="647" />
              <mxPoint x="862" y="913" />
            </Array>
          </mxGeometry>
        </mxCell>
        <mxCell id="l49nfDTgq1CVATP30IWU-69" value="" style="curved=1;startArrow=diamondThin;startSize=14;startFill=1;endArrow=none;exitX=0.5;exitY=1;entryX=0.5;entryY=0;rounded=0;labelBackgroundColor=none;strokeColor=#A8201A;fontColor=default;" edge="1" parent="1" source="l49nfDTgq1CVATP30IWU-11" target="l49nfDTgq1CVATP30IWU-27">
          <mxGeometry relative="1" as="geometry">
            <Array as="points">
              <mxPoint x="156" y="913" />
            </Array>
          </mxGeometry>
        </mxCell>
        <mxCell id="l49nfDTgq1CVATP30IWU-70" value="1" style="edgeLabel;resizable=0;labelBackgroundColor=none;fontSize=12;align=right;verticalAlign=top;fontColor=#143642;" vertex="1" parent="l49nfDTgq1CVATP30IWU-69">
          <mxGeometry x="-1" relative="1" as="geometry" />
        </mxCell>
        <mxCell id="l49nfDTgq1CVATP30IWU-71" value="many" style="edgeLabel;resizable=0;labelBackgroundColor=none;fontSize=12;align=left;verticalAlign=bottom;fontColor=#143642;" vertex="1" parent="l49nfDTgq1CVATP30IWU-69">
          <mxGeometry x="1" relative="1" as="geometry" />
        </mxCell>
        <mxCell id="l49nfDTgq1CVATP30IWU-72" value="" style="curved=1;startArrow=diamondThin;startSize=14;startFill=1;endArrow=none;exitX=1;exitY=0.76;entryX=0.53;entryY=0;rounded=0;labelBackgroundColor=none;strokeColor=#A8201A;fontColor=default;" edge="1" parent="1" source="l49nfDTgq1CVATP30IWU-11" target="l49nfDTgq1CVATP30IWU-35">
          <mxGeometry relative="1" as="geometry">
            <Array as="points">
              <mxPoint x="472" y="913" />
            </Array>
          </mxGeometry>
        </mxCell>
        <mxCell id="l49nfDTgq1CVATP30IWU-73" value="1" style="edgeLabel;resizable=0;labelBackgroundColor=none;fontSize=12;align=left;verticalAlign=top;fontColor=#143642;" vertex="1" parent="l49nfDTgq1CVATP30IWU-72">
          <mxGeometry x="-1" relative="1" as="geometry" />
        </mxCell>
        <mxCell id="l49nfDTgq1CVATP30IWU-74" value="many" style="edgeLabel;resizable=0;labelBackgroundColor=none;fontSize=12;align=right;verticalAlign=bottom;fontColor=#143642;" vertex="1" parent="l49nfDTgq1CVATP30IWU-72">
          <mxGeometry x="1" relative="1" as="geometry" />
        </mxCell>
        <mxCell id="l49nfDTgq1CVATP30IWU-75" value="" style="curved=1;startArrow=none;endArrow=none;exitX=0.5;exitY=1;entryX=0.5;entryY=0;rounded=0;labelBackgroundColor=none;strokeColor=#A8201A;fontColor=default;" edge="1" parent="1" source="l49nfDTgq1CVATP30IWU-35" target="l49nfDTgq1CVATP30IWU-44">
          <mxGeometry relative="1" as="geometry">
            <Array as="points" />
          </mxGeometry>
        </mxCell>
        <mxCell id="l49nfDTgq1CVATP30IWU-76" value="1" style="edgeLabel;resizable=0;labelBackgroundColor=none;fontSize=12;align=right;verticalAlign=top;fontColor=#143642;" vertex="1" parent="l49nfDTgq1CVATP30IWU-75">
          <mxGeometry x="-1" relative="1" as="geometry" />
        </mxCell>
        <mxCell id="l49nfDTgq1CVATP30IWU-77" value="1" style="edgeLabel;resizable=0;labelBackgroundColor=none;fontSize=12;align=left;verticalAlign=bottom;fontColor=#143642;" vertex="1" parent="l49nfDTgq1CVATP30IWU-75">
          <mxGeometry x="1" relative="1" as="geometry" />
        </mxCell>
        <mxCell id="l49nfDTgq1CVATP30IWU-78" value="" style="curved=1;startArrow=diamondThin;startSize=14;startFill=1;endArrow=none;exitX=0;exitY=0.97;entryX=1;entryY=0.24;rounded=0;labelBackgroundColor=none;strokeColor=#A8201A;fontColor=default;" edge="1" parent="1" source="l49nfDTgq1CVATP30IWU-18" target="l49nfDTgq1CVATP30IWU-44">
          <mxGeometry relative="1" as="geometry">
            <Array as="points">
              <mxPoint x="674" y="1227" />
            </Array>
          </mxGeometry>
        </mxCell>
        <mxCell id="l49nfDTgq1CVATP30IWU-79" value="1" style="edgeLabel;resizable=0;labelBackgroundColor=none;fontSize=12;align=right;verticalAlign=top;fontColor=#143642;" vertex="1" parent="l49nfDTgq1CVATP30IWU-78">
          <mxGeometry x="-1" relative="1" as="geometry" />
        </mxCell>
        <mxCell id="l49nfDTgq1CVATP30IWU-80" value="many" style="edgeLabel;resizable=0;labelBackgroundColor=none;fontSize=12;align=left;verticalAlign=bottom;fontColor=#143642;" vertex="1" parent="l49nfDTgq1CVATP30IWU-78">
          <mxGeometry x="1" relative="1" as="geometry" />
        </mxCell>
        <mxCell id="l49nfDTgq1CVATP30IWU-81" value="" style="curved=1;startArrow=none;endArrow=none;exitX=0.54;exitY=1;entryX=0.51;entryY=0;rounded=0;labelBackgroundColor=none;strokeColor=#A8201A;fontColor=default;" edge="1" parent="1" source="l49nfDTgq1CVATP30IWU-18" target="l49nfDTgq1CVATP30IWU-59">
          <mxGeometry relative="1" as="geometry">
            <Array as="points">
              <mxPoint x="809" y="1227" />
            </Array>
          </mxGeometry>
        </mxCell>
        <mxCell id="l49nfDTgq1CVATP30IWU-82" value="1" style="edgeLabel;resizable=0;labelBackgroundColor=none;fontSize=12;align=right;verticalAlign=top;fontColor=#143642;" vertex="1" parent="l49nfDTgq1CVATP30IWU-81">
          <mxGeometry x="-1" relative="1" as="geometry" />
        </mxCell>
        <mxCell id="l49nfDTgq1CVATP30IWU-83" value="1" style="edgeLabel;resizable=0;labelBackgroundColor=none;fontSize=12;align=left;verticalAlign=bottom;fontColor=#143642;" vertex="1" parent="l49nfDTgq1CVATP30IWU-81">
          <mxGeometry x="1" relative="1" as="geometry" />
        </mxCell>
        <mxCell id="l49nfDTgq1CVATP30IWU-84" value="" style="curved=1;startArrow=diamondThin;startSize=14;startFill=1;endArrow=none;exitX=0.5;exitY=1;entryX=0.5;entryY=0;rounded=0;labelBackgroundColor=none;strokeColor=#A8201A;fontColor=default;" edge="1" parent="1" source="l49nfDTgq1CVATP30IWU-27" target="l49nfDTgq1CVATP30IWU-61">
          <mxGeometry relative="1" as="geometry">
            <Array as="points" />
          </mxGeometry>
        </mxCell>
        <mxCell id="l49nfDTgq1CVATP30IWU-85" value="1" style="edgeLabel;resizable=0;labelBackgroundColor=none;fontSize=12;align=right;verticalAlign=top;fontColor=#143642;" vertex="1" parent="l49nfDTgq1CVATP30IWU-84">
          <mxGeometry x="-1" relative="1" as="geometry" />
        </mxCell>
        <mxCell id="l49nfDTgq1CVATP30IWU-86" value="many" style="edgeLabel;resizable=0;labelBackgroundColor=none;fontSize=12;align=left;verticalAlign=bottom;fontColor=#143642;" vertex="1" parent="l49nfDTgq1CVATP30IWU-84">
          <mxGeometry x="1" relative="1" as="geometry" />
        </mxCell>
        <mxCell id="l49nfDTgq1CVATP30IWU-87" value="" style="curved=1;startArrow=diamondThin;startSize=14;startFill=1;endArrow=none;exitX=0;exitY=0.85;entryX=0.5;entryY=0;rounded=0;labelBackgroundColor=none;strokeColor=#A8201A;fontColor=default;" edge="1" parent="1" source="l49nfDTgq1CVATP30IWU-51" target="l49nfDTgq1CVATP30IWU-1">
          <mxGeometry relative="1" as="geometry">
            <Array as="points">
              <mxPoint x="156" y="285" />
            </Array>
          </mxGeometry>
        </mxCell>
        <mxCell id="l49nfDTgq1CVATP30IWU-88" value="1" style="edgeLabel;resizable=0;labelBackgroundColor=none;fontSize=12;align=right;verticalAlign=top;fontColor=#143642;" vertex="1" parent="l49nfDTgq1CVATP30IWU-87">
          <mxGeometry x="-1" relative="1" as="geometry" />
        </mxCell>
        <mxCell id="l49nfDTgq1CVATP30IWU-89" value="many" style="edgeLabel;resizable=0;labelBackgroundColor=none;fontSize=12;align=left;verticalAlign=bottom;fontColor=#143642;" vertex="1" parent="l49nfDTgq1CVATP30IWU-87">
          <mxGeometry x="1" relative="1" as="geometry" />
        </mxCell>
        <mxCell id="l49nfDTgq1CVATP30IWU-90" value="" style="curved=1;startArrow=diamondThin;startSize=14;startFill=1;endArrow=none;exitX=1;exitY=0.85;entryX=0.99;entryY=0;rounded=0;labelBackgroundColor=none;strokeColor=#A8201A;fontColor=default;" edge="1" parent="1" source="l49nfDTgq1CVATP30IWU-51" target="l49nfDTgq1CVATP30IWU-35">
          <mxGeometry relative="1" as="geometry">
            <Array as="points">
              <mxPoint x="598" y="285" />
              <mxPoint x="598" y="913" />
            </Array>
          </mxGeometry>
        </mxCell>
        <mxCell id="l49nfDTgq1CVATP30IWU-91" value="1" style="edgeLabel;resizable=0;labelBackgroundColor=none;fontSize=12;align=right;verticalAlign=top;fontColor=#143642;" vertex="1" parent="l49nfDTgq1CVATP30IWU-90">
          <mxGeometry x="-1" relative="1" as="geometry" />
        </mxCell>
        <mxCell id="l49nfDTgq1CVATP30IWU-92" value="many" style="edgeLabel;resizable=0;labelBackgroundColor=none;fontSize=12;align=left;verticalAlign=bottom;fontColor=#143642;" vertex="1" parent="l49nfDTgq1CVATP30IWU-90">
          <mxGeometry x="1" relative="1" as="geometry" />
        </mxCell>
      </root>
    </mxGraphModel>
  </diagram>
</mxfile>
